<?xml version="1.0" encoding="utf-8"?>
<!-- Generator: Adobe Illustrator 19.1.0, SVG Export Plug-In . SVG Version: 6.00 Build 0)  -->
<svg version="1.1" xmlns="http://www.w3.org/2000/svg" xmlns:xlink="http://www.w3.org/1999/xlink" x="0px" y="0px"
	 viewBox="0 0 1024 1024" style="enable-background:new 0 0 1024 1024;" xml:space="preserve">
<style type="text/css">
	.st0{fill:#FF0000;}
	.st1{fill:#02024F;}
	.st2{fill:#1752BA;}
	.st3{fill:#00BFF2;}
	.st4{fill:none;stroke:#FFFFFF;stroke-width:6;stroke-miterlimit:10;}
	.st5{fill:none;stroke:#000000;stroke-width:3;stroke-miterlimit:10;}
</style>
<g id="Layer_3">
	<rect x="484" y="114" class="st0" width="55.2" height="787.2"/>
	<rect x="285.7" y="307.5" class="st0" width="448.2" height="56.4"/>
</g>
<g id="Layer_1">
	<g id="XMLID_1_">
		<g>
			<path class="st1" d="M430.8,565.7v96.1c-0.9,4.8-1.3,9.7-1.3,14.7h-0.2l-143.6-0.1h-1.4l-0.5-309.8
				c9.6,79.8,60.5,145.8,130.8,177.8v0l48.8,21.2H430.8z"/>
			<path class="st1" d="M283.5,109.7h227.7c-117.3,0.2-214,88.4-227.4,202.1l-0.3-202V109.7z"/>
			<path class="st1" d="M285.7,676.5c0,99.2,60.2,184,145.1,217.9v15.8H284.7l-0.4-233.8H285.7z"/>
			<path class="st2" d="M463.4,565.7l-48.8-21.2v0c-70.3-32-121.2-98.1-130.8-177.8l-0.1-54.8c13.4-113.7,110.1-202,227.4-202.1
				c0.1,0,0.2,0,0.3,0c126.2,0,228.5,101.9,229.3,227.8H594.6c0-45.5-37.2-82.4-83.1-82.4s-83.1,36.9-83.1,82.4
				c0,35.7,22.9,66,54.9,77.5L593,457.2l-0.1,0.2c28.1,10.8,53.5,27.1,75.1,47.6c44.8,42.7,72.9,103.7,72.9,171.4
				c0,129.1-101.9,233.8-227.6,233.8c-8.5,0-16.9-0.5-25.1-1.4c-20-2.3-39.3-7.2-57.4-14.4c-84.9-33.9-145.1-118.7-145.1-217.9
				l143.6,0.1h0.2c0,45.5,37,82.4,82.6,82.4c45.6,0,82.6-36.9,82.6-82.4c0-31.6-17.8-59-44-72.8c-3.6-1.9-7.5-3.6-11.4-5
				L463.4,565.7z"/>
			<path class="st1" d="M740.9,337.5c0,0.5,0,1,0,1.4c0,66.1-28,125-72.9,166.1c-21.6-20.6-47-36.9-75.1-47.6l0.1-0.2L483.2,415
				c8.8,3.2,18.3,4.9,28.2,4.9c45.9,0,83.1-36.9,83.1-82.4H740.9z"/>
			<path class="st3" d="M463.4,565.7l75.8,33c-8.5-3-17.7-4.6-27.2-4.6c-40.6,0-74.3,29.2-81.2,67.6v-96.1H463.4z"/>
			<path class="st3" d="M488.2,908.8l-0.1,1.4h-57.2v-15.8C448.9,901.6,468.2,906.6,488.2,908.8z"/>
		</g>
		<g>
			<polyline class="st4" points="283.5,109.8 283.8,311.9 283.9,366.6 284.3,676.5 284.7,910.2 			"/>
			<polyline class="st4" points="282.2,109.7 283.5,109.7 511.2,109.7 			"/>
			<polyline class="st4" points="284.7,910.2 430.8,910.2 488,910.2 			"/>
			<path class="st4" d="M668,505.1C668,505,668,505,668,505.1c44.8-41.1,72.9-99.9,72.9-166.1c0-0.5,0-1,0-1.4
				c-0.8-125.9-103.2-227.8-229.3-227.8c-0.1,0-0.2,0-0.3,0c-117.3,0.2-214,88.4-227.4,202.1c-1.1,8.9-1.6,17.9-1.6,27.1
				c0,9.4,0.6,18.6,1.7,27.7c9.6,79.8,60.5,145.8,130.8,177.8"/>
			<path class="st4" d="M285.7,676.5c0,99.2,60.2,184,145.1,217.9c18.1,7.2,37.4,12.2,57.4,14.4c8.2,0.9,16.6,1.4,25.1,1.4
				c125.7,0,227.6-104.7,227.6-233.8c0-67.7-28-128.7-72.9-171.4c-21.6-20.6-47-36.9-75.1-47.6"/>
			<line class="st4" x1="430.8" y1="894.4" x2="430.8" y2="910.2"/>
			<polyline class="st4" points="430.8,565.7 430.8,661.8 430.8,676.5 			"/>
			<path class="st4" d="M594.6,337.5c0-45.5-37.2-82.4-83.1-82.4s-83.1,36.9-83.1,82.4c0,35.7,22.9,66,54.9,77.5
				c8.8,3.2,18.3,4.9,28.2,4.9C557.4,419.9,594.6,383,594.6,337.5z"/>
			<path class="st4" d="M429.5,676.5c0,45.5,37,82.4,82.6,82.4c45.6,0,82.6-36.9,82.6-82.4c0-31.6-17.8-59-44-72.8
				c-3.6-1.9-7.5-3.6-11.4-5c-8.5-3-17.7-4.6-27.2-4.6c-40.6,0-74.3,29.2-81.2,67.6C429.9,666.6,429.5,671.5,429.5,676.5z"/>
			<polyline class="st4" points="594.6,337.5 740.9,337.5 740.9,337.5 			"/>
			<line class="st4" x1="429.3" y1="676.5" x2="285.7" y2="676.5"/>
			<line class="st4" x1="483.2" y1="415" x2="593" y2="457.2"/>
			<polyline class="st4" points="550.6,603.7 539.2,598.7 463.4,565.7 414.7,544.5 			"/>
			<polyline class="st4" points="464.4,565.7 463.4,565.7 430.8,565.7 428.2,565.7 			"/>
		</g>
	</g>
</g>
<g id="Layer_4">
	<rect x="282.2" y="107.7" class="st5" width="458.7" height="804.1"/>
</g>
</svg>
