<?xml version="1.0" encoding="utf-8"?>
<!-- Generator: Adobe Illustrator 19.1.0, SVG Export Plug-In . SVG Version: 6.00 Build 0)  -->
<svg version="1.1" xmlns="http://www.w3.org/2000/svg" xmlns:xlink="http://www.w3.org/1999/xlink" x="0px" y="0px"
	 viewBox="0 0 1024 1024" style="enable-background:new 0 0 1024 1024;" xml:space="preserve">
<style type="text/css">
	.st0{fill:#FFFFFF;stroke:#000000;stroke-miterlimit:10;}
	.st1{fill:#FF0000;}
	.st2{fill:#02024F;}
	.st3{fill:#1752BA;}
	.st4{fill:#00BFF2;}
	.st5{fill:none;stroke:#FFFFFF;stroke-width:6;stroke-miterlimit:10;}
	.st6{fill:none;stroke:#000000;stroke-width:3;stroke-miterlimit:10;}
</style>
<g id="Layer_5">
	<rect class="st0" width="1024" height="1024"/>
</g>
<g id="Layer_3">
	<rect x="479.2" y="108.5" class="st1" width="55.2" height="787.2"/>
	<rect x="281" y="302" class="st1" width="448.2" height="56.4"/>
</g>
<g id="Layer_1">
	<g id="XMLID_2_">
		<g>
			<path class="st2" d="M737.1,334.6c0,0.5,0,1,0,1.4c0,66.2-28,125-72.9,166.1c-21.6-20.5-47-36.9-75.1-47.6l0.1-0.2l-109.8-42.2
				c8.8,3.2,18.3,4.9,28.2,4.9c45.9,0,83.1-36.9,83.1-82.4H737.1z"/>
			<path class="st3" d="M664.3,502.1c44.8,42.7,72.9,103.7,72.9,171.4c0,129.1-101.9,233.8-227.6,233.8c-8.5,0-16.9-0.5-25.1-1.4
				c-20-2.3-39.3-7.2-57.4-14.4C342.2,857.5,282,772.7,282,673.5l143.6,0.1h0.2c0,45.5,37,82.4,82.6,82.4
				c45.6,0,82.6-36.9,82.6-82.4c0-31.6-17.8-59-44-72.8c-3.7-1.9-7.5-3.6-11.4-5l-75.8-33l-48.8-21.2v0
				C337.4,508,285.1,437.2,279.1,352.4l-0.1-31.8c7.9-119.3,107.2-213.6,228.5-213.8c0.1,0,0.2,0,0.3,0
				c126.2,0,228.5,101.9,229.3,227.8H590.9c0-45.5-37.2-82.4-83.1-82.4s-83.2,36.9-83.2,82.4c0,35.7,22.9,66,54.9,77.5l109.8,42.2
				l-0.1,0.2C617.3,465.2,642.7,481.5,664.3,502.1z"/>
			<path class="st4" d="M459.7,562.8l75.8,33c-8.5-3-17.7-4.6-27.2-4.6c-40.6,0-74.3,29.2-81.2,67.6v-96H459.7z"/>
			<path class="st2" d="M278.5,106.8h229c-121.3,0.2-220.6,94.5-228.5,213.8l-0.5-213.7V106.8z"/>
			<path class="st4" d="M484.4,905.9l-0.1,1.4h-57.2v-15.8C445.2,898.7,464.4,903.6,484.4,905.9z"/>
			<path class="st2" d="M427.1,562.8v96c-0.9,4.8-1.3,9.7-1.3,14.7h-0.2L282,673.5h-2.2l-0.7-321.1c6,84.8,58.3,155.6,131.9,189.1v0
				l48.8,21.2H427.1z"/>
			<path class="st2" d="M427.1,891.4v15.8H282h-1.7l-0.5-233.8h2.2C282,772.7,342.2,857.5,427.1,891.4z"/>
		</g>
		<g>
			<polyline class="st5" points="278.5,106.9 279,320.6 279.1,352.4 279.8,673.5 280.3,907.3 			"/>
			<polyline class="st5" points="278.5,106.8 278.5,106.8 507.5,106.8 			"/>
			<polyline class="st5" points="282,907.3 427.1,907.3 484.3,907.3 			"/>
			<path class="st5" d="M664.3,502.1C664.3,502.1,664.3,502.1,664.3,502.1c44.9-41.1,72.9-99.9,72.9-166.1c0-0.5,0-1,0-1.4
				C736.4,208.6,634,106.8,507.8,106.8c-0.1,0-0.2,0-0.3,0c-121.3,0.2-220.6,94.5-228.5,213.8c-0.4,5.1-0.5,10.2-0.5,15.4
				c0,5.5,0.2,11,0.6,16.4c6,84.8,58.3,155.6,131.9,189.1"/>
			<path class="st5" d="M282,673.5c0,99.2,60.2,184,145.1,217.9c18.1,7.2,37.4,12.2,57.4,14.4c8.2,0.9,16.6,1.4,25.1,1.4
				c125.7,0,227.6-104.7,227.6-233.8c0-67.7-28-128.7-72.9-171.4c-21.6-20.5-47-36.9-75.1-47.6"/>
			<line class="st5" x1="427.1" y1="891.4" x2="427.1" y2="907.3"/>
			<polyline class="st5" points="427.1,562.8 427.1,658.8 427.1,673.6 			"/>
			<path class="st5" d="M590.9,334.6c0-45.5-37.2-82.4-83.1-82.4s-83.2,36.9-83.2,82.4c0,35.7,22.9,66,54.9,77.5
				c8.8,3.2,18.3,4.9,28.2,4.9C553.6,416.9,590.9,380.1,590.9,334.6z"/>
			<path class="st5" d="M425.7,673.6c0,45.5,37,82.4,82.6,82.4c45.6,0,82.6-36.9,82.6-82.4c0-31.6-17.8-59-44-72.8
				c-3.7-1.9-7.5-3.6-11.4-5c-8.5-3-17.7-4.6-27.2-4.6c-40.6,0-74.3,29.2-81.2,67.6C426.2,663.6,425.7,668.5,425.7,673.6z"/>
			<polyline class="st5" points="590.9,334.6 737.1,334.6 737.1,334.6 			"/>
			<line class="st5" x1="425.6" y1="673.6" x2="282" y2="673.5"/>
			<line class="st5" x1="479.5" y1="412.1" x2="589.3" y2="454.3"/>
			<polyline class="st5" points="546.9,600.7 535.5,595.8 459.7,562.8 410.9,541.5 			"/>
			<polyline class="st5" points="460.7,562.8 459.7,562.8 427.1,562.8 424.5,562.8 			"/>
		</g>
	</g>
</g>
<g id="Layer_4">
	<rect x="276.5" y="105.1" class="st6" width="466.1" height="804"/>
</g>
</svg>
